<svg xmlns="http://www.w3.org/2000/svg" width="1000" height="520" viewBox="0 0 1000 520">
  <defs>
    <style>
      .bg { fill: #1f2937; }
      .panel { fill: #111827; stroke: #0f172a; stroke-width: 2; }
      .node { fill: #0f172a; stroke: #334155; stroke-width: 2; }
      .node-accent { fill: #0b3b52; stroke: #38bdf8; stroke-width: 2; }
      .text { fill: #e5e7eb; font-family: Arial, Helvetica, sans-serif; font-size: 16px; }
      .title { fill: #e5e7eb; font-family: Arial, Helvetica, sans-serif; font-size: 18px; font-weight: 600; }
      .arrow { stroke: #e2e8f0; stroke-width: 3; fill: none; }
      .arrow-dashed { stroke: #94a3b8; stroke-width: 3; fill: none; stroke-dasharray: 6 6; }
    </style>
    <marker id="arrowhead" markerWidth="10" markerHeight="7" refX="10" refY="3.5" orient="auto">
      <polygon points="0 0, 10 3.5, 0 7" fill="#e2e8f0" />
    </marker>
    <marker id="arrowhead-dashed" markerWidth="10" markerHeight="7" refX="10" refY="3.5" orient="auto">
      <polygon points="0 0, 10 3.5, 0 7" fill="#94a3b8" />
    </marker>
  </defs>

  <rect class="bg" x="0" y="0" width="1000" height="520" rx="12" />

  <!-- Host panel -->
  <rect class="panel" x="40" y="60" width="420" height="400" rx="12" />
  <text class="title" x="80" y="95">Debian/Linux Host</text>
  <!-- Debian spiral right after title -->
  <g transform="translate(-20 -2) translate(300 90) scale(0.62) translate(-300 -90)">
    <line x1="300.00" y1="105.15" x2="299.00" y2="104.98" stroke="#d70a53" stroke-width="3.40" stroke-linecap="round" />
    <line x1="299.00" y1="104.98" x2="298.03" y2="104.75" stroke="#d70a53" stroke-width="3.39" stroke-linecap="round" />
    <line x1="298.03" y1="104.75" x2="297.07" y2="104.48" stroke="#d70a53" stroke-width="3.38" stroke-linecap="round" />
    <line x1="297.07" y1="104.48" x2="296.14" y2="104.16" stroke="#d70a53" stroke-width="3.37" stroke-linecap="round" />
    <line x1="296.14" y1="104.16" x2="295.23" y2="103.79" stroke="#d70a53" stroke-width="3.37" stroke-linecap="round" />
    <line x1="295.23" y1="103.79" x2="294.35" y2="103.38" stroke="#d70a53" stroke-width="3.36" stroke-linecap="round" />
    <line x1="294.35" y1="103.38" x2="293.49" y2="102.92" stroke="#d70a53" stroke-width="3.35" stroke-linecap="round" />
    <line x1="293.49" y1="102.92" x2="292.66" y2="102.42" stroke="#d70a53" stroke-width="3.34" stroke-linecap="round" />
    <line x1="292.66" y1="102.42" x2="291.86" y2="101.87" stroke="#d70a53" stroke-width="3.33" stroke-linecap="round" />
    <line x1="291.86" y1="101.87" x2="291.10" y2="101.28" stroke="#d70a53" stroke-width="3.33" stroke-linecap="round" />
    <line x1="291.10" y1="101.28" x2="290.37" y2="100.65" stroke="#d70a53" stroke-width="3.32" stroke-linecap="round" />
    <line x1="290.37" y1="100.65" x2="289.68" y2="99.97" stroke="#d70a53" stroke-width="3.31" stroke-linecap="round" />
    <line x1="289.68" y1="99.97" x2="289.03" y2="99.26" stroke="#d70a53" stroke-width="3.30" stroke-linecap="round" />
    <line x1="289.03" y1="99.26" x2="288.43" y2="98.50" stroke="#d70a53" stroke-width="3.29" stroke-linecap="round" />
    <line x1="288.43" y1="98.50" x2="287.88" y2="97.70" stroke="#d70a53" stroke-width="3.29" stroke-linecap="round" />
    <line x1="287.88" y1="97.70" x2="287.39" y2="96.87" stroke="#d70a53" stroke-width="3.28" stroke-linecap="round" />
    <line x1="287.39" y1="96.87" x2="286.95" y2="96.01" stroke="#d70a53" stroke-width="3.27" stroke-linecap="round" />
    <line x1="286.95" y1="96.01" x2="286.58" y2="95.11" stroke="#d70a53" stroke-width="3.26" stroke-linecap="round" />
    <line x1="286.58" y1="95.11" x2="286.27" y2="94.20" stroke="#d70a53" stroke-width="3.26" stroke-linecap="round" />
    <line x1="286.27" y1="94.20" x2="286.04" y2="93.26" stroke="#d70a53" stroke-width="3.25" stroke-linecap="round" />
    <line x1="286.04" y1="93.26" x2="285.88" y2="92.31" stroke="#d70a53" stroke-width="3.24" stroke-linecap="round" />
    <line x1="285.88" y1="92.31" x2="285.79" y2="91.35" stroke="#d70a53" stroke-width="3.23" stroke-linecap="round" />
    <line x1="285.79" y1="91.35" x2="285.78" y2="90.39" stroke="#d70a53" stroke-width="3.22" stroke-linecap="round" />
    <line x1="285.78" y1="90.39" x2="285.84" y2="89.44" stroke="#d70a53" stroke-width="3.22" stroke-linecap="round" />
    <line x1="285.84" y1="89.44" x2="285.98" y2="88.50" stroke="#d70a53" stroke-width="3.21" stroke-linecap="round" />
    <line x1="285.98" y1="88.50" x2="286.19" y2="87.57" stroke="#d70a53" stroke-width="3.20" stroke-linecap="round" />
    <line x1="286.19" y1="87.57" x2="286.47" y2="86.67" stroke="#d70a53" stroke-width="3.19" stroke-linecap="round" />
    <line x1="286.47" y1="86.67" x2="286.81" y2="85.81" stroke="#d70a53" stroke-width="3.19" stroke-linecap="round" />
    <line x1="286.81" y1="85.81" x2="287.21" y2="84.97" stroke="#d70a53" stroke-width="3.18" stroke-linecap="round" />
    <line x1="287.21" y1="84.97" x2="287.67" y2="84.18" stroke="#d70a53" stroke-width="3.17" stroke-linecap="round" />
    <line x1="287.67" y1="84.18" x2="288.19" y2="83.43" stroke="#d70a53" stroke-width="3.16" stroke-linecap="round" />
    <line x1="288.19" y1="83.43" x2="288.75" y2="82.72" stroke="#d70a53" stroke-width="3.16" stroke-linecap="round" />
    <line x1="288.75" y1="82.72" x2="289.34" y2="82.06" stroke="#d70a53" stroke-width="3.15" stroke-linecap="round" />
    <line x1="289.34" y1="82.06" x2="289.98" y2="81.45" stroke="#d70a53" stroke-width="3.14" stroke-linecap="round" />
    <line x1="289.98" y1="81.45" x2="290.64" y2="80.89" stroke="#d70a53" stroke-width="3.13" stroke-linecap="round" />
    <line x1="290.64" y1="80.89" x2="291.33" y2="80.37" stroke="#d70a53" stroke-width="3.12" stroke-linecap="round" />
    <line x1="291.33" y1="80.37" x2="292.05" y2="79.91" stroke="#d70a53" stroke-width="3.12" stroke-linecap="round" />
    <line x1="292.05" y1="79.91" x2="292.78" y2="79.49" stroke="#d70a53" stroke-width="3.11" stroke-linecap="round" />
    <line x1="292.78" y1="79.49" x2="293.52" y2="79.12" stroke="#d70a53" stroke-width="3.10" stroke-linecap="round" />
    <line x1="293.52" y1="79.12" x2="294.28" y2="78.79" stroke="#d70a53" stroke-width="3.09" stroke-linecap="round" />
    <line x1="294.28" y1="78.79" x2="295.04" y2="78.51" stroke="#d70a53" stroke-width="3.08" stroke-linecap="round" />
    <line x1="295.04" y1="78.51" x2="295.81" y2="78.27" stroke="#d70a53" stroke-width="3.08" stroke-linecap="round" />
    <line x1="295.81" y1="78.27" x2="296.59" y2="78.08" stroke="#d70a53" stroke-width="3.07" stroke-linecap="round" />
    <line x1="296.59" y1="78.08" x2="297.37" y2="77.93" stroke="#d70a53" stroke-width="3.06" stroke-linecap="round" />
    <line x1="297.37" y1="77.93" x2="298.15" y2="77.82" stroke="#d70a53" stroke-width="3.05" stroke-linecap="round" />
    <line x1="298.15" y1="77.82" x2="298.93" y2="77.75" stroke="#d70a53" stroke-width="3.05" stroke-linecap="round" />
    <line x1="298.93" y1="77.75" x2="299.71" y2="77.73" stroke="#d70a53" stroke-width="3.04" stroke-linecap="round" />
    <line x1="299.71" y1="77.73" x2="300.49" y2="77.75" stroke="#d70a53" stroke-width="3.03" stroke-linecap="round" />
    <line x1="300.49" y1="77.75" x2="301.26" y2="77.82" stroke="#d70a53" stroke-width="3.02" stroke-linecap="round" />
    <line x1="301.26" y1="77.82" x2="302.03" y2="77.94" stroke="#d70a53" stroke-width="3.01" stroke-linecap="round" />
    <line x1="302.03" y1="77.94" x2="302.78" y2="78.10" stroke="#d70a53" stroke-width="3.01" stroke-linecap="round" />
    <line x1="302.78" y1="78.10" x2="303.52" y2="78.32" stroke="#d70a53" stroke-width="3.00" stroke-linecap="round" />
    <line x1="303.52" y1="78.32" x2="304.25" y2="78.58" stroke="#d70a53" stroke-width="2.99" stroke-linecap="round" />
    <line x1="304.25" y1="78.58" x2="304.95" y2="78.89" stroke="#d70a53" stroke-width="2.98" stroke-linecap="round" />
    <line x1="304.95" y1="78.89" x2="305.62" y2="79.25" stroke="#d70a53" stroke-width="2.98" stroke-linecap="round" />
    <line x1="305.62" y1="79.25" x2="306.27" y2="79.65" stroke="#d70a53" stroke-width="2.97" stroke-linecap="round" />
    <line x1="306.27" y1="79.65" x2="306.88" y2="80.11" stroke="#d70a53" stroke-width="2.96" stroke-linecap="round" />
    <line x1="306.88" y1="80.11" x2="307.45" y2="80.60" stroke="#d70a53" stroke-width="2.95" stroke-linecap="round" />
    <line x1="307.45" y1="80.60" x2="307.98" y2="81.14" stroke="#d70a53" stroke-width="2.95" stroke-linecap="round" />
    <line x1="307.98" y1="81.14" x2="308.46" y2="81.71" stroke="#d70a53" stroke-width="2.94" stroke-linecap="round" />
    <line x1="308.46" y1="81.71" x2="308.90" y2="82.32" stroke="#d70a53" stroke-width="2.93" stroke-linecap="round" />
    <line x1="308.90" y1="82.32" x2="309.28" y2="82.96" stroke="#d70a53" stroke-width="2.92" stroke-linecap="round" />
    <line x1="309.28" y1="82.96" x2="309.61" y2="83.62" stroke="#d70a53" stroke-width="2.91" stroke-linecap="round" />
    <line x1="309.61" y1="83.62" x2="309.88" y2="84.30" stroke="#d70a53" stroke-width="2.91" stroke-linecap="round" />
    <line x1="309.88" y1="84.30" x2="310.09" y2="84.99" stroke="#d70a53" stroke-width="2.90" stroke-linecap="round" />
    <line x1="310.09" y1="84.99" x2="310.25" y2="85.70" stroke="#d70a53" stroke-width="2.89" stroke-linecap="round" />
    <line x1="310.25" y1="85.70" x2="310.36" y2="86.40" stroke="#d70a53" stroke-width="2.88" stroke-linecap="round" />
    <line x1="310.36" y1="86.40" x2="310.41" y2="87.11" stroke="#d70a53" stroke-width="2.88" stroke-linecap="round" />
    <line x1="310.41" y1="87.11" x2="310.41" y2="87.81" stroke="#d70a53" stroke-width="2.87" stroke-linecap="round" />
    <line x1="310.41" y1="87.81" x2="310.36" y2="88.50" stroke="#d70a53" stroke-width="2.86" stroke-linecap="round" />
    <line x1="310.36" y1="88.50" x2="310.26" y2="89.18" stroke="#d70a53" stroke-width="2.85" stroke-linecap="round" />
    <line x1="310.26" y1="89.18" x2="310.11" y2="89.84" stroke="#d70a53" stroke-width="2.84" stroke-linecap="round" />
    <line x1="310.11" y1="89.84" x2="309.93" y2="90.48" stroke="#d70a53" stroke-width="2.84" stroke-linecap="round" />
    <line x1="309.93" y1="90.48" x2="309.71" y2="91.10" stroke="#d70a53" stroke-width="2.83" stroke-linecap="round" />
    <line x1="309.71" y1="91.10" x2="309.45" y2="91.70" stroke="#d70a53" stroke-width="2.82" stroke-linecap="round" />
    <line x1="309.45" y1="91.70" x2="309.16" y2="92.27" stroke="#d70a53" stroke-width="2.81" stroke-linecap="round" />
    <line x1="309.16" y1="92.27" x2="308.84" y2="92.82" stroke="#d70a53" stroke-width="2.80" stroke-linecap="round" />
    <line x1="308.84" y1="92.82" x2="308.49" y2="93.35" stroke="#d70a53" stroke-width="2.80" stroke-linecap="round" />
    <line x1="308.49" y1="93.35" x2="308.12" y2="93.85" stroke="#d70a53" stroke-width="2.79" stroke-linecap="round" />
    <line x1="308.12" y1="93.85" x2="307.72" y2="94.32" stroke="#d70a53" stroke-width="2.78" stroke-linecap="round" />
    <line x1="307.72" y1="94.32" x2="307.30" y2="94.76" stroke="#d70a53" stroke-width="2.77" stroke-linecap="round" />
    <line x1="307.30" y1="94.76" x2="306.86" y2="95.18" stroke="#d70a53" stroke-width="2.77" stroke-linecap="round" />
    <line x1="306.86" y1="95.18" x2="306.40" y2="95.57" stroke="#d70a53" stroke-width="2.76" stroke-linecap="round" />
    <line x1="306.40" y1="95.57" x2="305.93" y2="95.93" stroke="#d70a53" stroke-width="2.75" stroke-linecap="round" />
    <line x1="305.93" y1="95.93" x2="305.43" y2="96.26" stroke="#d70a53" stroke-width="2.74" stroke-linecap="round" />
    <line x1="305.43" y1="96.26" x2="304.92" y2="96.56" stroke="#d70a53" stroke-width="2.73" stroke-linecap="round" />
    <line x1="304.92" y1="96.56" x2="304.39" y2="96.83" stroke="#d70a53" stroke-width="2.73" stroke-linecap="round" />
    <line x1="304.39" y1="96.83" x2="303.85" y2="97.06" stroke="#d70a53" stroke-width="2.72" stroke-linecap="round" />
    <line x1="303.85" y1="97.06" x2="303.30" y2="97.26" stroke="#d70a53" stroke-width="2.71" stroke-linecap="round" />
    <line x1="303.30" y1="97.26" x2="302.73" y2="97.42" stroke="#d70a53" stroke-width="2.70" stroke-linecap="round" />
    <line x1="302.73" y1="97.42" x2="302.16" y2="97.54" stroke="#d70a53" stroke-width="2.70" stroke-linecap="round" />
    <line x1="302.16" y1="97.54" x2="301.59" y2="97.62" stroke="#d70a53" stroke-width="2.69" stroke-linecap="round" />
    <line x1="301.59" y1="97.62" x2="301.00" y2="97.65" stroke="#d70a53" stroke-width="2.68" stroke-linecap="round" />
    <line x1="301.00" y1="97.65" x2="300.43" y2="97.65" stroke="#d70a53" stroke-width="2.67" stroke-linecap="round" />
    <line x1="300.43" y1="97.65" x2="299.85" y2="97.60" stroke="#d70a53" stroke-width="2.67" stroke-linecap="round" />
    <line x1="299.85" y1="97.60" x2="299.28" y2="97.51" stroke="#d70a53" stroke-width="2.66" stroke-linecap="round" />
    <line x1="299.28" y1="97.51" x2="298.72" y2="97.37" stroke="#d70a53" stroke-width="2.65" stroke-linecap="round" />
    <line x1="298.72" y1="97.37" x2="298.18" y2="97.19" stroke="#d70a53" stroke-width="2.64" stroke-linecap="round" />
    <line x1="298.18" y1="97.19" x2="297.65" y2="96.98" stroke="#d70a53" stroke-width="2.63" stroke-linecap="round" />
    <line x1="297.65" y1="96.98" x2="297.15" y2="96.72" stroke="#d70a53" stroke-width="2.63" stroke-linecap="round" />
    <line x1="297.15" y1="96.72" x2="296.67" y2="96.43" stroke="#d70a53" stroke-width="2.62" stroke-linecap="round" />
    <line x1="296.67" y1="96.43" x2="296.22" y2="96.10" stroke="#d70a53" stroke-width="2.61" stroke-linecap="round" />
    <line x1="296.22" y1="96.10" x2="295.80" y2="95.74" stroke="#d70a53" stroke-width="2.60" stroke-linecap="round" />
    <line x1="295.80" y1="95.74" x2="295.41" y2="95.36" stroke="#d70a53" stroke-width="2.59" stroke-linecap="round" />
    <line x1="295.41" y1="95.36" x2="295.05" y2="94.95" stroke="#d70a53" stroke-width="2.59" stroke-linecap="round" />
    <line x1="295.05" y1="94.95" x2="294.72" y2="94.52" stroke="#d70a53" stroke-width="2.58" stroke-linecap="round" />
    <line x1="294.72" y1="94.52" x2="294.44" y2="94.07" stroke="#d70a53" stroke-width="2.57" stroke-linecap="round" />
    <line x1="294.44" y1="94.07" x2="294.18" y2="93.61" stroke="#d70a53" stroke-width="2.56" stroke-linecap="round" />
    <line x1="294.18" y1="93.61" x2="293.96" y2="93.14" stroke="#d70a53" stroke-width="2.56" stroke-linecap="round" />
    <line x1="293.96" y1="93.14" x2="293.78" y2="92.67" stroke="#d70a53" stroke-width="2.55" stroke-linecap="round" />
    <line x1="293.78" y1="92.67" x2="293.62" y2="92.19" stroke="#d70a53" stroke-width="2.54" stroke-linecap="round" />
    <line x1="293.62" y1="92.19" x2="293.50" y2="91.70" stroke="#d70a53" stroke-width="2.53" stroke-linecap="round" />
    <line x1="293.50" y1="91.70" x2="293.42" y2="91.22" stroke="#d70a53" stroke-width="2.52" stroke-linecap="round" />
    <line x1="293.42" y1="91.22" x2="293.36" y2="90.74" stroke="#d70a53" stroke-width="2.52" stroke-linecap="round" />
    <line x1="293.36" y1="90.74" x2="293.33" y2="90.26" stroke="#d70a53" stroke-width="2.51" stroke-linecap="round" />
    <line x1="293.33" y1="90.26" x2="293.32" y2="89.79" stroke="#d70a53" stroke-width="2.50" stroke-linecap="round" />
    <line x1="293.32" y1="89.79" x2="293.34" y2="89.33" stroke="#d70a53" stroke-width="2.49" stroke-linecap="round" />
    <line x1="293.34" y1="89.33" x2="293.39" y2="88.87" stroke="#d70a53" stroke-width="2.49" stroke-linecap="round" />
    <line x1="293.39" y1="88.87" x2="293.47" y2="88.43" stroke="#d70a53" stroke-width="2.48" stroke-linecap="round" />
    <line x1="293.47" y1="88.43" x2="293.56" y2="87.99" stroke="#d70a53" stroke-width="2.47" stroke-linecap="round" />
    <line x1="293.56" y1="87.99" x2="293.68" y2="87.56" stroke="#d70a53" stroke-width="2.46" stroke-linecap="round" />
    <line x1="293.68" y1="87.56" x2="293.83" y2="87.15" stroke="#d70a53" stroke-width="2.46" stroke-linecap="round" />
    <line x1="293.83" y1="87.15" x2="293.99" y2="86.75" stroke="#d70a53" stroke-width="2.45" stroke-linecap="round" />
    <line x1="293.99" y1="86.75" x2="294.18" y2="86.36" stroke="#d70a53" stroke-width="2.44" stroke-linecap="round" />
    <line x1="294.18" y1="86.36" x2="294.39" y2="85.99" stroke="#d70a53" stroke-width="2.43" stroke-linecap="round" />
    <line x1="294.39" y1="85.99" x2="294.62" y2="85.64" stroke="#d70a53" stroke-width="2.42" stroke-linecap="round" />
    <line x1="294.62" y1="85.64" x2="294.87" y2="85.31" stroke="#d70a53" stroke-width="2.42" stroke-linecap="round" />
    <line x1="294.87" y1="85.31" x2="295.13" y2="84.99" stroke="#d70a53" stroke-width="2.41" stroke-linecap="round" />
    <line x1="295.13" y1="84.99" x2="295.42" y2="84.70" stroke="#d70a53" stroke-width="2.40" stroke-linecap="round" />
    <line x1="295.42" y1="84.70" x2="295.73" y2="84.43" stroke="#d70a53" stroke-width="2.39" stroke-linecap="round" />
    <line x1="295.73" y1="84.43" x2="296.05" y2="84.18" stroke="#d70a53" stroke-width="2.38" stroke-linecap="round" />
    <line x1="296.05" y1="84.18" x2="296.38" y2="83.96" stroke="#d70a53" stroke-width="2.38" stroke-linecap="round" />
    <line x1="296.38" y1="83.96" x2="296.72" y2="83.77" stroke="#d70a53" stroke-width="2.37" stroke-linecap="round" />
    <line x1="296.72" y1="83.77" x2="297.08" y2="83.61" stroke="#d70a53" stroke-width="2.36" stroke-linecap="round" />
    <line x1="297.08" y1="83.61" x2="297.44" y2="83.47" stroke="#d70a53" stroke-width="2.35" stroke-linecap="round" />
    <line x1="297.44" y1="83.47" x2="297.81" y2="83.37" stroke="#d70a53" stroke-width="2.35" stroke-linecap="round" />
    <line x1="297.81" y1="83.37" x2="298.17" y2="83.29" stroke="#d70a53" stroke-width="2.34" stroke-linecap="round" />
    <line x1="298.17" y1="83.29" x2="298.54" y2="83.25" stroke="#d70a53" stroke-width="2.33" stroke-linecap="round" />
    <line x1="298.54" y1="83.25" x2="298.91" y2="83.23" stroke="#d70a53" stroke-width="2.32" stroke-linecap="round" />
    <line x1="298.91" y1="83.23" x2="299.27" y2="83.24" stroke="#d70a53" stroke-width="2.31" stroke-linecap="round" />
    <line x1="299.27" y1="83.24" x2="299.62" y2="83.28" stroke="#d70a53" stroke-width="2.31" stroke-linecap="round" />
    <line x1="299.62" y1="83.28" x2="299.96" y2="83.34" stroke="#d70a53" stroke-width="2.30" stroke-linecap="round" />
    <line x1="299.96" y1="83.34" x2="300.30" y2="83.42" stroke="#d70a53" stroke-width="2.29" stroke-linecap="round" />
    <line x1="300.30" y1="83.42" x2="300.61" y2="83.53" stroke="#d70a53" stroke-width="2.28" stroke-linecap="round" />
    <line x1="300.61" y1="83.53" x2="300.92" y2="83.66" stroke="#d70a53" stroke-width="2.28" stroke-linecap="round" />
    <line x1="300.92" y1="83.66" x2="301.21" y2="83.81" stroke="#d70a53" stroke-width="2.27" stroke-linecap="round" />
    <line x1="301.21" y1="83.81" x2="301.48" y2="83.97" stroke="#d70a53" stroke-width="2.26" stroke-linecap="round" />
    <line x1="301.48" y1="83.97" x2="301.73" y2="84.15" stroke="#d70a53" stroke-width="2.25" stroke-linecap="round" />
    <line x1="301.73" y1="84.15" x2="301.97" y2="84.34" stroke="#d70a53" stroke-width="2.25" stroke-linecap="round" />
    <line x1="301.97" y1="84.34" x2="302.19" y2="84.54" stroke="#d70a53" stroke-width="2.24" stroke-linecap="round" />
    <line x1="302.19" y1="84.54" x2="302.39" y2="84.76" stroke="#d70a53" stroke-width="2.23" stroke-linecap="round" />
    <line x1="302.39" y1="84.76" x2="302.57" y2="84.98" stroke="#d70a53" stroke-width="2.22" stroke-linecap="round" />
    <line x1="302.57" y1="84.98" x2="302.73" y2="85.20" stroke="#d70a53" stroke-width="2.21" stroke-linecap="round" />
    <line x1="302.73" y1="85.20" x2="302.88" y2="85.43" stroke="#d70a53" stroke-width="2.21" stroke-linecap="round" />
    <line x1="302.88" y1="85.43" x2="303.00" y2="85.67" stroke="#d70a53" stroke-width="2.20" stroke-linecap="round" />
    <line x1="303.00" y1="85.67" x2="303.11" y2="85.90" stroke="#d70a53" stroke-width="2.19" stroke-linecap="round" />
    <line x1="303.11" y1="85.90" x2="303.20" y2="86.14" stroke="#d70a53" stroke-width="2.18" stroke-linecap="round" />
    <line x1="303.20" y1="86.14" x2="303.28" y2="86.38" stroke="#d70a53" stroke-width="2.17" stroke-linecap="round" />
    <line x1="303.28" y1="86.38" x2="303.33" y2="86.62" stroke="#d70a53" stroke-width="2.17" stroke-linecap="round" />
    <line x1="303.33" y1="86.62" x2="303.37" y2="86.86" stroke="#d70a53" stroke-width="2.16" stroke-linecap="round" />
    <line x1="303.37" y1="86.86" x2="303.39" y2="87.10" stroke="#d70a53" stroke-width="2.15" stroke-linecap="round" />
    <line x1="303.39" y1="87.10" x2="303.39" y2="87.33" stroke="#d70a53" stroke-width="2.14" stroke-linecap="round" />
    <line x1="303.39" y1="87.33" x2="303.38" y2="87.56" stroke="#d70a53" stroke-width="2.14" stroke-linecap="round" />
    <line x1="303.38" y1="87.56" x2="303.35" y2="87.78" stroke="#d70a53" stroke-width="2.13" stroke-linecap="round" />
    <line x1="303.35" y1="87.78" x2="303.30" y2="87.99" stroke="#d70a53" stroke-width="2.12" stroke-linecap="round" />
    <line x1="303.30" y1="87.99" x2="303.24" y2="88.20" stroke="#d70a53" stroke-width="2.11" stroke-linecap="round" />
    <line x1="303.24" y1="88.20" x2="303.16" y2="88.40" stroke="#d70a53" stroke-width="2.10" stroke-linecap="round" />
    <line x1="303.16" y1="88.40" x2="303.07" y2="88.59" stroke="#d70a53" stroke-width="2.10" stroke-linecap="round" />
    <line x1="303.07" y1="88.59" x2="302.96" y2="88.76" stroke="#d70a53" stroke-width="2.09" stroke-linecap="round" />
    <line x1="302.96" y1="88.76" x2="302.84" y2="88.93" stroke="#d70a53" stroke-width="2.08" stroke-linecap="round" />
    <line x1="302.84" y1="88.93" x2="302.71" y2="89.08" stroke="#d70a53" stroke-width="2.07" stroke-linecap="round" />
    <line x1="302.71" y1="89.08" x2="302.58" y2="89.21" stroke="#d70a53" stroke-width="2.07" stroke-linecap="round" />
    <line x1="302.58" y1="89.21" x2="302.43" y2="89.34" stroke="#d70a53" stroke-width="2.06" stroke-linecap="round" />
    <line x1="302.43" y1="89.34" x2="302.27" y2="89.44" stroke="#d70a53" stroke-width="2.05" stroke-linecap="round" />
    <line x1="302.27" y1="89.44" x2="302.12" y2="89.54" stroke="#d70a53" stroke-width="2.04" stroke-linecap="round" />
    <line x1="302.12" y1="89.54" x2="301.95" y2="89.62" stroke="#d70a53" stroke-width="2.04" stroke-linecap="round" />
    <line x1="301.95" y1="89.62" x2="301.79" y2="89.68" stroke="#d70a53" stroke-width="2.03" stroke-linecap="round" />
    <line x1="301.79" y1="89.68" x2="301.62" y2="89.73" stroke="#d70a53" stroke-width="2.02" stroke-linecap="round" />
    <line x1="301.62" y1="89.73" x2="301.46" y2="89.76" stroke="#d70a53" stroke-width="2.01" stroke-linecap="round" />
    <line x1="301.46" y1="89.76" x2="301.29" y2="89.78" stroke="#d70a53" stroke-width="2.00" stroke-linecap="round" />
  </g>

  <rect class="node" x="80" y="120" width="340" height="60" rx="10" />
  <text class="text" x="100" y="158">KVM/QEMU + libvirt</text>

  <rect class="node" x="80" y="200" width="340" height="60" rx="10" />
  <text class="text" x="100" y="238">VFIO-PCI</text>

  <rect class="node" x="80" y="280" width="340" height="60" rx="10" />
  <text class="text" x="100" y="318">vendor-reset (DKMS)</text>

  <rect class="node" x="80" y="360" width="340" height="60" rx="10" />
  <text class="text" x="100" y="398">VBIOS/ROMs (/usr/share/vgabios)</text>

  <!-- VM panel -->
  <rect class="panel" x="540" y="60" width="420" height="400" rx="12" />
  <text class="title" x="580" y="95">Windows VM</text>
  <!-- Windows icon right after title -->
  <rect x="726" y="78" width="8" height="8" fill="#3b82f6" />
  <rect x="737" y="78" width="8" height="8" fill="#3b82f6" />
  <rect x="726" y="89" width="8" height="8" fill="#3b82f6" />
  <rect x="737" y="89" width="8" height="8" fill="#3b82f6" />

  <rect class="node-accent" x="580" y="125" width="340" height="90" rx="10" />
  <text class="text" x="600" y="160">Ryzen APU iGPU (Vega 6/8)</text>
  <text class="text" x="600" y="185">+ HDMI/DP Audio</text>

  <rect class="node" x="580" y="240" width="340" height="60" rx="10" />
  <text class="text" x="600" y="278">AMD Drivers</text>

  <rect class="node" x="580" y="320" width="340" height="60" rx="10" />
  <text class="text" x="600" y="358">Task Scheduler (reset/disable)</text>

  <!-- Arrows (left -> GPU) -->
  <line class="arrow" x1="420" y1="150" x2="580" y2="155" marker-end="url(#arrowhead)" />
  <line class="arrow" x1="420" y1="230" x2="580" y2="180" marker-end="url(#arrowhead)" />

  <line class="arrow-dashed" x1="420" y1="310" x2="580" y2="205" marker-end="url(#arrowhead-dashed)" />
  <line class="arrow-dashed" x1="420" y1="390" x2="580" y2="220" marker-end="url(#arrowhead-dashed)" />

  <!-- Arrows (GPU -> Drivers, Task Scheduler -> GPU) -->
  <line class="arrow" x1="760" y1="215" x2="760" y2="240" marker-end="url(#arrowhead)" />
  <line class="arrow-dashed" x1="900" y1="320" x2="900" y2="215" marker-end="url(#arrowhead-dashed)" />
</svg>
